<svg xmlns="http://www.w3.org/2000/svg" viewBox="0 0 885 426">
<style>
  .bg { fill: #fafafa; }
  .key-body { fill: #ffffff; }
  .key-shadow { fill: rgba(0,0,0,0.04); }
  .key-label { fill: #525252; font-weight: 600; }
  .footer { fill: #a3a3a3; }
  @media (prefers-color-scheme: dark) {
    .bg { fill: #171717; }
    .key-body { fill: #2a2a2a; }
    .key-shadow { fill: rgba(0,0,0,0.15); }
    .key-label { fill: #d4d4d4; }
    .footer { fill: #525252; }
  }
</style>
<rect class="bg" width="885" height="426"/>
<g transform="translate(22,88.5)">
  <path class="key-shadow" d="M 6,2 L 64,2 Q 68,2 68,6 L 68,64 Q 68,68 64,68 L 6,68 Q 2,68 2,64 L 2,6 Q 2,2 6,2 Z" transform="translate(0.5,1)"/>
  <path class="key-body" d="M 6,2 L 64,2 Q 68,2 68,6 L 68,64 Q 68,68 64,68 L 6,68 Q 2,68 2,64 L 2,6 Q 2,2 6,2 Z" stroke="#fb923c" stroke-width="1.5"/>
  <text x="35" y="36" text-anchor="middle" dominant-baseline="central" font-family="system-ui, -apple-system, sans-serif" font-size="14" class="key-label">0</text>
</g>
<g transform="translate(92,44.400000000000006)">
  <path class="key-shadow" d="M 6,2 L 64,2 Q 68,2 68,6 L 68,64 Q 68,68 64,68 L 6,68 Q 2,68 2,64 L 2,6 Q 2,2 6,2 Z" transform="translate(0.5,1)"/>
  <path class="key-body" d="M 6,2 L 64,2 Q 68,2 68,6 L 68,64 Q 68,68 64,68 L 6,68 Q 2,68 2,64 L 2,6 Q 2,2 6,2 Z" stroke="#fb923c" stroke-width="1.5"/>
  <text x="35" y="36" text-anchor="middle" dominant-baseline="central" font-family="system-ui, -apple-system, sans-serif" font-size="14" class="key-label">1</text>
</g>
<g transform="translate(162,22)">
  <path class="key-shadow" d="M 6,2 L 64,2 Q 68,2 68,6 L 68,64 Q 68,68 64,68 L 6,68 Q 2,68 2,64 L 2,6 Q 2,2 6,2 Z" transform="translate(0.5,1)"/>
  <path class="key-body" d="M 6,2 L 64,2 Q 68,2 68,6 L 68,64 Q 68,68 64,68 L 6,68 Q 2,68 2,64 L 2,6 Q 2,2 6,2 Z" stroke="#fb923c" stroke-width="1.5"/>
  <text x="35" y="36" text-anchor="middle" dominant-baseline="central" font-family="system-ui, -apple-system, sans-serif" font-size="14" class="key-label">2</text>
</g>
<g transform="translate(232,41.6)">
  <path class="key-shadow" d="M 6,2 L 64,2 Q 68,2 68,6 L 68,64 Q 68,68 64,68 L 6,68 Q 2,68 2,64 L 2,6 Q 2,2 6,2 Z" transform="translate(0.5,1)"/>
  <path class="key-body" d="M 6,2 L 64,2 Q 68,2 68,6 L 68,64 Q 68,68 64,68 L 6,68 Q 2,68 2,64 L 2,6 Q 2,2 6,2 Z" stroke="#fb923c" stroke-width="1.5"/>
  <text x="35" y="36" text-anchor="middle" dominant-baseline="central" font-family="system-ui, -apple-system, sans-serif" font-size="14" class="key-label">3</text>
</g>
<g transform="translate(302,51.4)">
  <path class="key-shadow" d="M 6,2 L 64,2 Q 68,2 68,6 L 68,64 Q 68,68 64,68 L 6,68 Q 2,68 2,64 L 2,6 Q 2,2 6,2 Z" transform="translate(0.5,1)"/>
  <path class="key-body" d="M 6,2 L 64,2 Q 68,2 68,6 L 68,64 Q 68,68 64,68 L 6,68 Q 2,68 2,64 L 2,6 Q 2,2 6,2 Z" stroke="#fb923c" stroke-width="1.5"/>
  <text x="35" y="36" text-anchor="middle" dominant-baseline="central" font-family="system-ui, -apple-system, sans-serif" font-size="14" class="key-label">4</text>
</g>
<g transform="translate(512,51.4)">
  <path class="key-shadow" d="M 6,2 L 64,2 Q 68,2 68,6 L 68,64 Q 68,68 64,68 L 6,68 Q 2,68 2,64 L 2,6 Q 2,2 6,2 Z" transform="translate(0.5,1)"/>
  <path class="key-body" d="M 6,2 L 64,2 Q 68,2 68,6 L 68,64 Q 68,68 64,68 L 6,68 Q 2,68 2,64 L 2,6 Q 2,2 6,2 Z" stroke="#38bdf8" stroke-width="1.5"/>
  <text x="35" y="36" text-anchor="middle" dominant-baseline="central" font-family="system-ui, -apple-system, sans-serif" font-size="14" class="key-label">5</text>
</g>
<g transform="translate(582,41.6)">
  <path class="key-shadow" d="M 6,2 L 64,2 Q 68,2 68,6 L 68,64 Q 68,68 64,68 L 6,68 Q 2,68 2,64 L 2,6 Q 2,2 6,2 Z" transform="translate(0.5,1)"/>
  <path class="key-body" d="M 6,2 L 64,2 Q 68,2 68,6 L 68,64 Q 68,68 64,68 L 6,68 Q 2,68 2,64 L 2,6 Q 2,2 6,2 Z" stroke="#38bdf8" stroke-width="1.5"/>
  <text x="35" y="36" text-anchor="middle" dominant-baseline="central" font-family="system-ui, -apple-system, sans-serif" font-size="14" class="key-label">6</text>
</g>
<g transform="translate(652,22)">
  <path class="key-shadow" d="M 6,2 L 64,2 Q 68,2 68,6 L 68,64 Q 68,68 64,68 L 6,68 Q 2,68 2,64 L 2,6 Q 2,2 6,2 Z" transform="translate(0.5,1)"/>
  <path class="key-body" d="M 6,2 L 64,2 Q 68,2 68,6 L 68,64 Q 68,68 64,68 L 6,68 Q 2,68 2,64 L 2,6 Q 2,2 6,2 Z" stroke="#38bdf8" stroke-width="1.5"/>
  <text x="35" y="36" text-anchor="middle" dominant-baseline="central" font-family="system-ui, -apple-system, sans-serif" font-size="14" class="key-label">7</text>
</g>
<g transform="translate(722,44.400000000000006)">
  <path class="key-shadow" d="M 6,2 L 64,2 Q 68,2 68,6 L 68,64 Q 68,68 64,68 L 6,68 Q 2,68 2,64 L 2,6 Q 2,2 6,2 Z" transform="translate(0.5,1)"/>
  <path class="key-body" d="M 6,2 L 64,2 Q 68,2 68,6 L 68,64 Q 68,68 64,68 L 6,68 Q 2,68 2,64 L 2,6 Q 2,2 6,2 Z" stroke="#38bdf8" stroke-width="1.5"/>
  <text x="35" y="36" text-anchor="middle" dominant-baseline="central" font-family="system-ui, -apple-system, sans-serif" font-size="14" class="key-label">8</text>
</g>
<g transform="translate(792,88.5)">
  <path class="key-shadow" d="M 6,2 L 64,2 Q 68,2 68,6 L 68,64 Q 68,68 64,68 L 6,68 Q 2,68 2,64 L 2,6 Q 2,2 6,2 Z" transform="translate(0.5,1)"/>
  <path class="key-body" d="M 6,2 L 64,2 Q 68,2 68,6 L 68,64 Q 68,68 64,68 L 6,68 Q 2,68 2,64 L 2,6 Q 2,2 6,2 Z" stroke="#38bdf8" stroke-width="1.5"/>
  <text x="35" y="36" text-anchor="middle" dominant-baseline="central" font-family="system-ui, -apple-system, sans-serif" font-size="14" class="key-label">9</text>
</g>
<g transform="translate(22,158.5)">
  <path class="key-shadow" d="M 6,2 L 64,2 Q 68,2 68,6 L 68,64 Q 68,68 64,68 L 6,68 Q 2,68 2,64 L 2,6 Q 2,2 6,2 Z" transform="translate(0.5,1)"/>
  <path class="key-body" d="M 6,2 L 64,2 Q 68,2 68,6 L 68,64 Q 68,68 64,68 L 6,68 Q 2,68 2,64 L 2,6 Q 2,2 6,2 Z" stroke="#fb923c" stroke-width="1.5"/>
  <text x="35" y="36" text-anchor="middle" dominant-baseline="central" font-family="system-ui, -apple-system, sans-serif" font-size="14" class="key-label">10</text>
</g>
<g transform="translate(92,114.4)">
  <path class="key-shadow" d="M 6,2 L 64,2 Q 68,2 68,6 L 68,64 Q 68,68 64,68 L 6,68 Q 2,68 2,64 L 2,6 Q 2,2 6,2 Z" transform="translate(0.5,1)"/>
  <path class="key-body" d="M 6,2 L 64,2 Q 68,2 68,6 L 68,64 Q 68,68 64,68 L 6,68 Q 2,68 2,64 L 2,6 Q 2,2 6,2 Z" stroke="#fb923c" stroke-width="1.5"/>
  <text x="35" y="36" text-anchor="middle" dominant-baseline="central" font-family="system-ui, -apple-system, sans-serif" font-size="14" class="key-label">11</text>
</g>
<g transform="translate(162,92)">
  <path class="key-shadow" d="M 6,2 L 64,2 Q 68,2 68,6 L 68,64 Q 68,68 64,68 L 6,68 Q 2,68 2,64 L 2,6 Q 2,2 6,2 Z" transform="translate(0.5,1)"/>
  <path class="key-body" d="M 6,2 L 64,2 Q 68,2 68,6 L 68,64 Q 68,68 64,68 L 6,68 Q 2,68 2,64 L 2,6 Q 2,2 6,2 Z" stroke="#fb923c" stroke-width="1.5"/>
  <text x="35" y="36" text-anchor="middle" dominant-baseline="central" font-family="system-ui, -apple-system, sans-serif" font-size="14" class="key-label">12</text>
</g>
<g transform="translate(232,112.3)">
  <path class="key-shadow" d="M 6,2 L 64,2 Q 68,2 68,6 L 68,64 Q 68,68 64,68 L 6,68 Q 2,68 2,64 L 2,6 Q 2,2 6,2 Z" transform="translate(0.5,1)"/>
  <path class="key-body" d="M 6,2 L 64,2 Q 68,2 68,6 L 68,64 Q 68,68 64,68 L 6,68 Q 2,68 2,64 L 2,6 Q 2,2 6,2 Z" stroke="#fb923c" stroke-width="1.5"/>
  <text x="35" y="36" text-anchor="middle" dominant-baseline="central" font-family="system-ui, -apple-system, sans-serif" font-size="14" class="key-label">13</text>
</g>
<g transform="translate(302,121.39999999999999)">
  <path class="key-shadow" d="M 6,2 L 64,2 Q 68,2 68,6 L 68,64 Q 68,68 64,68 L 6,68 Q 2,68 2,64 L 2,6 Q 2,2 6,2 Z" transform="translate(0.5,1)"/>
  <path class="key-body" d="M 6,2 L 64,2 Q 68,2 68,6 L 68,64 Q 68,68 64,68 L 6,68 Q 2,68 2,64 L 2,6 Q 2,2 6,2 Z" stroke="#fb923c" stroke-width="1.5"/>
  <text x="35" y="36" text-anchor="middle" dominant-baseline="central" font-family="system-ui, -apple-system, sans-serif" font-size="14" class="key-label">14</text>
</g>
<g transform="translate(512,121.39999999999999)">
  <path class="key-shadow" d="M 6,2 L 64,2 Q 68,2 68,6 L 68,64 Q 68,68 64,68 L 6,68 Q 2,68 2,64 L 2,6 Q 2,2 6,2 Z" transform="translate(0.5,1)"/>
  <path class="key-body" d="M 6,2 L 64,2 Q 68,2 68,6 L 68,64 Q 68,68 64,68 L 6,68 Q 2,68 2,64 L 2,6 Q 2,2 6,2 Z" stroke="#38bdf8" stroke-width="1.5"/>
  <text x="35" y="36" text-anchor="middle" dominant-baseline="central" font-family="system-ui, -apple-system, sans-serif" font-size="14" class="key-label">15</text>
</g>
<g transform="translate(582,112.3)">
  <path class="key-shadow" d="M 6,2 L 64,2 Q 68,2 68,6 L 68,64 Q 68,68 64,68 L 6,68 Q 2,68 2,64 L 2,6 Q 2,2 6,2 Z" transform="translate(0.5,1)"/>
  <path class="key-body" d="M 6,2 L 64,2 Q 68,2 68,6 L 68,64 Q 68,68 64,68 L 6,68 Q 2,68 2,64 L 2,6 Q 2,2 6,2 Z" stroke="#38bdf8" stroke-width="1.5"/>
  <text x="35" y="36" text-anchor="middle" dominant-baseline="central" font-family="system-ui, -apple-system, sans-serif" font-size="14" class="key-label">16</text>
</g>
<g transform="translate(652,92)">
  <path class="key-shadow" d="M 6,2 L 64,2 Q 68,2 68,6 L 68,64 Q 68,68 64,68 L 6,68 Q 2,68 2,64 L 2,6 Q 2,2 6,2 Z" transform="translate(0.5,1)"/>
  <path class="key-body" d="M 6,2 L 64,2 Q 68,2 68,6 L 68,64 Q 68,68 64,68 L 6,68 Q 2,68 2,64 L 2,6 Q 2,2 6,2 Z" stroke="#38bdf8" stroke-width="1.5"/>
  <text x="35" y="36" text-anchor="middle" dominant-baseline="central" font-family="system-ui, -apple-system, sans-serif" font-size="14" class="key-label">17</text>
</g>
<g transform="translate(722,114.4)">
  <path class="key-shadow" d="M 6,2 L 64,2 Q 68,2 68,6 L 68,64 Q 68,68 64,68 L 6,68 Q 2,68 2,64 L 2,6 Q 2,2 6,2 Z" transform="translate(0.5,1)"/>
  <path class="key-body" d="M 6,2 L 64,2 Q 68,2 68,6 L 68,64 Q 68,68 64,68 L 6,68 Q 2,68 2,64 L 2,6 Q 2,2 6,2 Z" stroke="#38bdf8" stroke-width="1.5"/>
  <text x="35" y="36" text-anchor="middle" dominant-baseline="central" font-family="system-ui, -apple-system, sans-serif" font-size="14" class="key-label">18</text>
</g>
<g transform="translate(792,158.5)">
  <path class="key-shadow" d="M 6,2 L 64,2 Q 68,2 68,6 L 68,64 Q 68,68 64,68 L 6,68 Q 2,68 2,64 L 2,6 Q 2,2 6,2 Z" transform="translate(0.5,1)"/>
  <path class="key-body" d="M 6,2 L 64,2 Q 68,2 68,6 L 68,64 Q 68,68 64,68 L 6,68 Q 2,68 2,64 L 2,6 Q 2,2 6,2 Z" stroke="#38bdf8" stroke-width="1.5"/>
  <text x="35" y="36" text-anchor="middle" dominant-baseline="central" font-family="system-ui, -apple-system, sans-serif" font-size="14" class="key-label">19</text>
</g>
<g transform="translate(22,228.5)">
  <path class="key-shadow" d="M 6,2 L 64,2 Q 68,2 68,6 L 68,64 Q 68,68 64,68 L 6,68 Q 2,68 2,64 L 2,6 Q 2,2 6,2 Z" transform="translate(0.5,1)"/>
  <path class="key-body" d="M 6,2 L 64,2 Q 68,2 68,6 L 68,64 Q 68,68 64,68 L 6,68 Q 2,68 2,64 L 2,6 Q 2,2 6,2 Z" stroke="#fb923c" stroke-width="1.5"/>
  <text x="35" y="36" text-anchor="middle" dominant-baseline="central" font-family="system-ui, -apple-system, sans-serif" font-size="14" class="key-label">20</text>
</g>
<g transform="translate(92,183.70000000000002)">
  <path class="key-shadow" d="M 6,2 L 64,2 Q 68,2 68,6 L 68,64 Q 68,68 64,68 L 6,68 Q 2,68 2,64 L 2,6 Q 2,2 6,2 Z" transform="translate(0.5,1)"/>
  <path class="key-body" d="M 6,2 L 64,2 Q 68,2 68,6 L 68,64 Q 68,68 64,68 L 6,68 Q 2,68 2,64 L 2,6 Q 2,2 6,2 Z" stroke="#fb923c" stroke-width="1.5"/>
  <text x="35" y="36" text-anchor="middle" dominant-baseline="central" font-family="system-ui, -apple-system, sans-serif" font-size="14" class="key-label">21</text>
</g>
<g transform="translate(162,162)">
  <path class="key-shadow" d="M 6,2 L 64,2 Q 68,2 68,6 L 68,64 Q 68,68 64,68 L 6,68 Q 2,68 2,64 L 2,6 Q 2,2 6,2 Z" transform="translate(0.5,1)"/>
  <path class="key-body" d="M 6,2 L 64,2 Q 68,2 68,6 L 68,64 Q 68,68 64,68 L 6,68 Q 2,68 2,64 L 2,6 Q 2,2 6,2 Z" stroke="#fb923c" stroke-width="1.5"/>
  <text x="35" y="36" text-anchor="middle" dominant-baseline="central" font-family="system-ui, -apple-system, sans-serif" font-size="14" class="key-label">22</text>
</g>
<g transform="translate(232,182.3)">
  <path class="key-shadow" d="M 6,2 L 64,2 Q 68,2 68,6 L 68,64 Q 68,68 64,68 L 6,68 Q 2,68 2,64 L 2,6 Q 2,2 6,2 Z" transform="translate(0.5,1)"/>
  <path class="key-body" d="M 6,2 L 64,2 Q 68,2 68,6 L 68,64 Q 68,68 64,68 L 6,68 Q 2,68 2,64 L 2,6 Q 2,2 6,2 Z" stroke="#fb923c" stroke-width="1.5"/>
  <text x="35" y="36" text-anchor="middle" dominant-baseline="central" font-family="system-ui, -apple-system, sans-serif" font-size="14" class="key-label">23</text>
</g>
<g transform="translate(302,191.4)">
  <path class="key-shadow" d="M 6,2 L 64,2 Q 68,2 68,6 L 68,64 Q 68,68 64,68 L 6,68 Q 2,68 2,64 L 2,6 Q 2,2 6,2 Z" transform="translate(0.5,1)"/>
  <path class="key-body" d="M 6,2 L 64,2 Q 68,2 68,6 L 68,64 Q 68,68 64,68 L 6,68 Q 2,68 2,64 L 2,6 Q 2,2 6,2 Z" stroke="#fb923c" stroke-width="1.5"/>
  <text x="35" y="36" text-anchor="middle" dominant-baseline="central" font-family="system-ui, -apple-system, sans-serif" font-size="14" class="key-label">24</text>
</g>
<g transform="translate(512,191.4)">
  <path class="key-shadow" d="M 6,2 L 64,2 Q 68,2 68,6 L 68,64 Q 68,68 64,68 L 6,68 Q 2,68 2,64 L 2,6 Q 2,2 6,2 Z" transform="translate(0.5,1)"/>
  <path class="key-body" d="M 6,2 L 64,2 Q 68,2 68,6 L 68,64 Q 68,68 64,68 L 6,68 Q 2,68 2,64 L 2,6 Q 2,2 6,2 Z" stroke="#38bdf8" stroke-width="1.5"/>
  <text x="35" y="36" text-anchor="middle" dominant-baseline="central" font-family="system-ui, -apple-system, sans-serif" font-size="14" class="key-label">25</text>
</g>
<g transform="translate(582,182.3)">
  <path class="key-shadow" d="M 6,2 L 64,2 Q 68,2 68,6 L 68,64 Q 68,68 64,68 L 6,68 Q 2,68 2,64 L 2,6 Q 2,2 6,2 Z" transform="translate(0.5,1)"/>
  <path class="key-body" d="M 6,2 L 64,2 Q 68,2 68,6 L 68,64 Q 68,68 64,68 L 6,68 Q 2,68 2,64 L 2,6 Q 2,2 6,2 Z" stroke="#38bdf8" stroke-width="1.5"/>
  <text x="35" y="36" text-anchor="middle" dominant-baseline="central" font-family="system-ui, -apple-system, sans-serif" font-size="14" class="key-label">26</text>
</g>
<g transform="translate(652,162)">
  <path class="key-shadow" d="M 6,2 L 64,2 Q 68,2 68,6 L 68,64 Q 68,68 64,68 L 6,68 Q 2,68 2,64 L 2,6 Q 2,2 6,2 Z" transform="translate(0.5,1)"/>
  <path class="key-body" d="M 6,2 L 64,2 Q 68,2 68,6 L 68,64 Q 68,68 64,68 L 6,68 Q 2,68 2,64 L 2,6 Q 2,2 6,2 Z" stroke="#38bdf8" stroke-width="1.5"/>
  <text x="35" y="36" text-anchor="middle" dominant-baseline="central" font-family="system-ui, -apple-system, sans-serif" font-size="14" class="key-label">27</text>
</g>
<g transform="translate(722,183.70000000000002)">
  <path class="key-shadow" d="M 6,2 L 64,2 Q 68,2 68,6 L 68,64 Q 68,68 64,68 L 6,68 Q 2,68 2,64 L 2,6 Q 2,2 6,2 Z" transform="translate(0.5,1)"/>
  <path class="key-body" d="M 6,2 L 64,2 Q 68,2 68,6 L 68,64 Q 68,68 64,68 L 6,68 Q 2,68 2,64 L 2,6 Q 2,2 6,2 Z" stroke="#38bdf8" stroke-width="1.5"/>
  <text x="35" y="36" text-anchor="middle" dominant-baseline="central" font-family="system-ui, -apple-system, sans-serif" font-size="14" class="key-label">28</text>
</g>
<g transform="translate(792,228.5)">
  <path class="key-shadow" d="M 6,2 L 64,2 Q 68,2 68,6 L 68,64 Q 68,68 64,68 L 6,68 Q 2,68 2,64 L 2,6 Q 2,2 6,2 Z" transform="translate(0.5,1)"/>
  <path class="key-body" d="M 6,2 L 64,2 Q 68,2 68,6 L 68,64 Q 68,68 64,68 L 6,68 Q 2,68 2,64 L 2,6 Q 2,2 6,2 Z" stroke="#38bdf8" stroke-width="1.5"/>
  <text x="35" y="36" text-anchor="middle" dominant-baseline="central" font-family="system-ui, -apple-system, sans-serif" font-size="14" class="key-label">29</text>
</g>
<g transform="translate(253,270.5) rotate(15,70,70)">
  <path class="key-shadow" d="M 6,2 L 64,2 Q 68,2 68,6 L 68,64 Q 68,68 64,68 L 6,68 Q 2,68 2,64 L 2,6 Q 2,2 6,2 Z" transform="translate(0.5,1)"/>
  <path class="key-body" d="M 6,2 L 64,2 Q 68,2 68,6 L 68,64 Q 68,68 64,68 L 6,68 Q 2,68 2,64 L 2,6 Q 2,2 6,2 Z" stroke="#fb923c" stroke-width="1.5"/>
  <text x="35" y="36" text-anchor="middle" dominant-baseline="central" font-family="system-ui, -apple-system, sans-serif" font-size="14" class="key-label">30</text>
</g>
<g transform="translate(323,270.5) rotate(30,0,70)">
  <path class="key-shadow" d="M 6,2 L 64,2 Q 68,2 68,6 L 68,64 Q 68,68 64,68 L 6,68 Q 2,68 2,64 L 2,6 Q 2,2 6,2 Z" transform="translate(0.5,1)"/>
  <path class="key-body" d="M 6,2 L 64,2 Q 68,2 68,6 L 68,64 Q 68,68 64,68 L 6,68 Q 2,68 2,64 L 2,6 Q 2,2 6,2 Z" stroke="#fb923c" stroke-width="1.5"/>
  <text x="35" y="36" text-anchor="middle" dominant-baseline="central" font-family="system-ui, -apple-system, sans-serif" font-size="14" class="key-label">31</text>
</g>
<g transform="translate(491,270.5) rotate(-30,70,70)">
  <path class="key-shadow" d="M 6,2 L 64,2 Q 68,2 68,6 L 68,64 Q 68,68 64,68 L 6,68 Q 2,68 2,64 L 2,6 Q 2,2 6,2 Z" transform="translate(0.5,1)"/>
  <path class="key-body" d="M 6,2 L 64,2 Q 68,2 68,6 L 68,64 Q 68,68 64,68 L 6,68 Q 2,68 2,64 L 2,6 Q 2,2 6,2 Z" stroke="#38bdf8" stroke-width="1.5"/>
  <text x="35" y="36" text-anchor="middle" dominant-baseline="central" font-family="system-ui, -apple-system, sans-serif" font-size="14" class="key-label">32</text>
</g>
<g transform="translate(561,270.5) rotate(-15,0,70)">
  <path class="key-shadow" d="M 6,2 L 64,2 Q 68,2 68,6 L 68,64 Q 68,68 64,68 L 6,68 Q 2,68 2,64 L 2,6 Q 2,2 6,2 Z" transform="translate(0.5,1)"/>
  <path class="key-body" d="M 6,2 L 64,2 Q 68,2 68,6 L 68,64 Q 68,68 64,68 L 6,68 Q 2,68 2,64 L 2,6 Q 2,2 6,2 Z" stroke="#38bdf8" stroke-width="1.5"/>
  <text x="35" y="36" text-anchor="middle" dominant-baseline="central" font-family="system-ui, -apple-system, sans-serif" font-size="14" class="key-label">33</text>
</g>
<text x="442.5" y="412" text-anchor="middle" dominant-baseline="central" font-family="system-ui, -apple-system, sans-serif" font-size="11" class="footer">Built with Shield Wizard for ZMK</text>
</svg>